<?xml version="1.0" encoding="utf-8"?>
<!-- Generator: Adobe Illustrator 22.1.0, SVG Export Plug-In . SVG Version: 6.00 Build 0)  -->
<svg version="1.1" id="Capa_1" xmlns="http://www.w3.org/2000/svg" xmlns:xlink="http://www.w3.org/1999/xlink" x="0px" y="0px"
	 viewBox="0 0 113 60" style="enable-background:new 0 0 113 60;" xml:space="preserve">
<style type="text/css">
	.st0{fill:url(#SVGID_1_);}
	.st1{fill:#FFFFFF;}
	.st2{fill:#2F8E75;}
	.st3{fill:#4674B1;}
</style>
<g>
	<radialGradient id="SVGID_1_" cx="76.2921" cy="13.0289" r="23.1709" gradientUnits="userSpaceOnUse">
		<stop  offset="0" style="stop-color:#FFF02D"/>
		<stop  offset="0.2193" style="stop-color:#F9E831"/>
		<stop  offset="0.6758" style="stop-color:#DB822E"/>
		<stop  offset="1" style="stop-color:#B81E25"/>
	</radialGradient>
	<path class="st0" d="M80,24c0,0.1,0,0.3,0,0.4c0,1.3-0.2,2.5-0.4,3.8c-0.1,0.5-0.2,1-0.3,1.5c-0.3,1.1-0.6,2.1-1.1,3.1
		c-0.2,0.5-0.4,0.9-0.6,1.4c-0.6,1.2-1.3,2.4-2.2,3.5c-0.3,0.4-0.7,0.8-1,1.3c-1.6-0.4-3.3-0.7-4.9-0.9c-0.6-0.1-1.1-0.2-1.7-0.3
		c-1.2-0.2-2.3-0.3-3.5-0.4c-0.6-0.1-1.2-0.1-1.7-0.1c-0.6,0-1.2-0.1-1.7-0.1c-0.6,0-1.2,0-1.7-0.1c-0.6,0-1.2,0-1.7,0
		c-0.6,0-1.2,0-1.7,0c-0.6,0-1.2,0-1.7,0.1c-0.6,0-1.2,0.1-1.7,0.1c-0.6,0-1.2,0.1-1.7,0.1c-1.2,0.1-2.3,0.2-3.5,0.4
		c-0.6,0.1-1.2,0.2-1.7,0.3c-1.7,0.3-3.3,0.6-4.9,0.9c-0.4-0.4-0.7-0.8-1-1.3c-2.9-3.8-4.6-8.5-4.6-13.7c0-1.9,0.2-3.8,0.7-5.6
		c0.5-2.1,1.3-4,2.3-5.8c0.3-0.4,0.5-0.9,0.8-1.3c0.6-0.9,1.3-1.8,2-2.6c0.3-0.4,0.7-0.8,1.1-1.1c0.9-0.9,1.9-1.7,2.9-2.4
		c0.2-0.1,0.4-0.3,0.6-0.4c0.2-0.1,0.4-0.3,0.7-0.4c0.4-0.2,0.7-0.4,1.1-0.6c0.2-0.1,0.3-0.2,0.5-0.2c1-0.5,2-0.9,3-1.2
		c0.6-0.2,1.2-0.3,1.7-0.5c0.6-0.1,1.2-0.3,1.7-0.3c0.6-0.1,1.2-0.2,1.7-0.2c0.6,0,1.2-0.1,1.7-0.1c0.6,0,1.2,0,1.7,0.1
		c0.6,0,1.2,0.1,1.7,0.2c0.6,0.1,1.2,0.2,1.7,0.3c0.6,0.1,1.2,0.3,1.7,0.5c0.2,0.1,0.3,0.1,0.5,0.2C65.4,2.8,66,3,66.6,3.3
		c0.4,0.2,0.8,0.4,1.2,0.6c0.6,0.3,1.2,0.6,1.7,1c5.5,3.5,9.4,9.4,10.3,16.3v0c0.1,0.6,0.1,1.2,0.2,1.8v0C80,23.3,80,23.6,80,24z"/>
	<g>
		<path class="st1" d="M67.5,16.3l0,6l2,1.1v-8.1L62,11.2l0,25.9v0.2l0.3,0c2.7,0.2,4.1,0.3,6.8,0.7l0.4,0.1l0-1.6l0-0.1v-8.1
			l-2-1.1l0,8.8c-1.3-0.2-2.1-0.3-3.4-0.4l0-18l0-3.2L67.5,16.3z"/>
		<path class="st1" d="M50.5,17.5l0,0.5l-5.4-2.9l0,23l0.4-0.1c0.6-0.1,0.9-0.1,1.4-0.2l0.3,0l0-19.5c1.2,0.7,2,1.1,3.3,1.8l0,17.4
			l0.4,0c0.6,0,0.9-0.1,1.4-0.1l0.3,0l0-25.6l-2.1,1.1L50.5,17.5z"/>
		<path class="st1" d="M60.9,18.7c-0.6-0.3-0.9-0.5-1.5-0.8c-1.6-0.9-2.4-1.3-3.8-2l0-5.9L59,8.2l0,5l2.1,1.1l0-9.4l-7.4,4l-0.1,0.1
			l0,7.7l5.4,2.9l0,15.7c-1.3,0-2,0-3.3,0l0-14.6l-2.1-1.1l0,17.6l0.3,0c2.8-0.1,4.1-0.1,6.8,0l0.3,0l0-18.5L60.9,18.7z"/>
	</g>
	<g>
		<path class="st2" d="M6.8,43.3h1.7l4,5.2v-5.2h1.8v8.5h-1.6l-4.1-5.4v5.4l-1.8,0V43.3z"/>
		<path class="st2" d="M15.7,49.4v-4.2h1.8v3.6c0,0.9,0.4,1.3,1.1,1.3c0.7,0,1.1-0.4,1.1-1.3v-3.6h1.8v6.5h-1.8v-0.9
			c-0.4,0.5-1,1-1.9,1C16.5,51.8,15.7,50.9,15.7,49.4z"/>
		<path class="st2" d="M22.6,48.5L22.6,48.5c0-1.9,1.3-3.4,3.2-3.4c2.2,0,3.2,1.7,3.2,3.5c0,0.1,0,0.3,0,0.5l-4.5,0
			c0.2,0.8,0.8,1.3,1.6,1.3c0.6,0,1.1-0.2,1.6-0.7l1.1,0.9c-0.6,0.7-1.5,1.2-2.6,1.2C24.1,51.9,22.6,50.5,22.6,48.5z M27.2,48
			c-0.1-0.8-0.6-1.4-1.4-1.4c-0.8,0-1.3,0.5-1.4,1.4L27.2,48z"/>
		<path class="st2" d="M29,45.2H31l1.4,4.3l1.5-4.3l1.9,0l-2.5,6.5h-1.7L29,45.2z"/>
		<path class="st2" d="M35.9,49.8L35.9,49.8c0-1.4,1.1-2.1,2.6-2.1c0.7,0,1.1,0.1,1.6,0.3v-0.1c0-0.8-0.5-1.2-1.4-1.2
			c-0.7,0-1.2,0.1-1.8,0.4l-0.5-1.4c0.7-0.3,1.4-0.5,2.5-0.5c1,0,1.7,0.3,2.2,0.7c0.5,0.5,0.7,1.2,0.7,2.1v3.8H40V51
			c-0.4,0.5-1.1,0.8-2,0.8C36.9,51.8,35.9,51.1,35.9,49.8z M40.1,49.4v-0.3c-0.3-0.1-0.7-0.2-1.2-0.2c-0.8,0-1.3,0.3-1.3,0.9v0
			c0,0.5,0.4,0.8,1,0.8C39.5,50.6,40.1,50.1,40.1,49.4z"/>
		<path class="st2" d="M46,50.5l1.1-1.3c0.8,0.6,1.6,1,2.5,1c0.8,0,1.2-0.3,1.2-0.8v0c0-0.5-0.3-0.7-1.7-1.1
			c-1.7-0.4-2.8-0.9-2.8-2.6v0c0-1.5,1.2-2.5,3-2.5c1.2,0,2.3,0.4,3.1,1.1l-1,1.4c-0.7-0.5-1.5-0.8-2.2-0.8c-0.7,0-1.1,0.3-1.1,0.7
			v0c0,0.6,0.4,0.7,1.8,1.1c1.7,0.4,2.7,1.1,2.7,2.5v0c0,1.7-1.3,2.6-3.1,2.6C48.3,51.8,47,51.4,46,50.5z"/>
		<path class="st2" d="M53.4,49.8L53.4,49.8c0-1.4,1.1-2.1,2.6-2.1c0.7,0,1.1,0.1,1.6,0.3v-0.1c0-0.8-0.5-1.2-1.4-1.2
			c-0.7,0-1.2,0.1-1.8,0.4l-0.5-1.4c0.7-0.3,1.4-0.5,2.5-0.5c1,0,1.7,0.3,2.2,0.7c0.5,0.5,0.7,1.2,0.7,2.1v3.8l-1.8,0V51
			c-0.4,0.5-1.1,0.8-2,0.8C54.4,51.8,53.4,51.1,53.4,49.8z M57.6,49.4v-0.3c-0.3-0.1-0.7-0.2-1.2-0.2c-0.8,0-1.3,0.3-1.3,0.9v0
			c0,0.5,0.4,0.8,1,0.8C57,50.6,57.6,50.1,57.6,49.4z"/>
		<path class="st2" d="M60.6,45.2h1.8v0.9c0.4-0.5,1-1,1.9-1c1.4,0,2.2,0.9,2.2,2.4v4.2h-1.8v-3.6c0-0.9-0.4-1.3-1.1-1.3
			c-0.7,0-1.1,0.4-1.1,1.3v3.6h-1.8V45.2z"/>
		<path class="st2" d="M68,49.9v-3.1h-0.8v-1.6H68v-1.7h1.8v1.7h1.5v1.6h-1.5v2.8c0,0.4,0.2,0.6,0.6,0.6c0.3,0,0.6-0.1,0.9-0.2v1.5
			c-0.4,0.2-0.8,0.4-1.4,0.4C68.7,51.8,68,51.4,68,49.9z"/>
		<path class="st2" d="M71.9,49.8L71.9,49.8c0-1.4,1.1-2.1,2.6-2.1c0.7,0,1.1,0.1,1.6,0.3v-0.1c0-0.8-0.5-1.2-1.4-1.2
			c-0.7,0-1.2,0.1-1.8,0.4l-0.5-1.4c0.7-0.3,1.4-0.5,2.5-0.5c1,0,1.7,0.3,2.2,0.7c0.5,0.5,0.7,1.2,0.7,2.1v3.8h-1.8V51
			c-0.4,0.5-1.1,0.8-2,0.8C72.9,51.8,71.9,51.1,71.9,49.8z M76.1,49.4v-0.3c-0.3-0.1-0.7-0.2-1.2-0.2c-0.8,0-1.3,0.3-1.3,0.9v0
			c0,0.5,0.4,0.8,1,0.8C75.6,50.6,76.1,50.1,76.1,49.4z"/>
		<path class="st2" d="M82.3,47.5L82.3,47.5c0-2.4,1.8-4.4,4.4-4.4c1.6,0,2.5,0.5,3.3,1.3l-1.2,1.4c-0.7-0.6-1.3-1-2.2-1
			c-1.4,0-2.5,1.2-2.5,2.6v0c0,1.4,1,2.7,2.5,2.7c1,0,1.6-0.4,2.2-1l1.2,1.2c-0.9,0.9-1.8,1.5-3.5,1.5
			C84.1,51.9,82.3,49.9,82.3,47.5z"/>
		<path class="st2" d="M90.9,45.2h1.8v1.3c0.4-0.9,1-1.5,2.1-1.4V47h-0.1c-1.2,0-2,0.7-2,2.3v2.4h-1.8V45.2z"/>
		<path class="st2" d="M95.4,49.4v-4.2h1.8v3.6c0,0.9,0.4,1.3,1.1,1.3c0.7,0,1.1-0.4,1.1-1.3v-3.6h1.8v6.5h-1.8v-0.9
			c-0.4,0.5-1,1-1.9,1C96.2,51.8,95.4,50.9,95.4,49.4z"/>
		<path class="st2" d="M102.3,50.4l3.3-3.7l-3.2,0v-1.5l5.5,0v1.3l-3.4,3.7h3.4v1.5h-5.6V50.4z"/>
	</g>
	<g>
		<path class="st3" d="M24.2,56.8L24.2,56.8c0-1.1,0.8-2,2-2c0.7,0,1.1,0.2,1.5,0.6L27.3,56c-0.3-0.3-0.6-0.5-1.1-0.5
			c-0.7,0-1.3,0.6-1.3,1.4v0c0,0.7,0.5,1.4,1.3,1.4c0.5,0,0.8-0.2,1.1-0.5l0.4,0.4c-0.4,0.4-0.8,0.7-1.6,0.7
			C25,58.8,24.2,57.9,24.2,56.8z"/>
		<path class="st3" d="M28.7,54.9h0.7v3.8h-0.7V54.9z"/>
		<path class="st3" d="M30.7,57.1v-2.2h0.7v2.2c0,0.7,0.4,1.1,1,1.1c0.6,0,1-0.4,1-1.1v-2.2h0.7v2.2c0,1.1-0.6,1.7-1.7,1.7
			C31.3,58.8,30.7,58.2,30.7,57.1z"/>
		<path class="st3" d="M35.1,54.9h1.4c1.2,0,2,0.8,2,1.9v0c0,1.1-0.8,1.9-2,1.9h-1.4V54.9z M36.6,58.1c0.8,0,1.3-0.5,1.3-1.3v0
			c0-0.7-0.5-1.3-1.3-1.3h-0.8v2.6H36.6z"/>
		<path class="st3" d="M40.8,54.9h0.6l1.7,3.9h-0.7L42,57.8h-1.8l-0.4,0.9h-0.7L40.8,54.9z M41.8,57.2l-0.7-1.5l-0.7,1.5H41.8z"/>
		<path class="st3" d="M44.1,54.9h1.4c1.2,0,2,0.8,2,1.9v0c0,1.1-0.8,1.9-2,1.9h-1.4V54.9z M45.5,58.1c0.8,0,1.3-0.5,1.3-1.3v0
			c0-0.7-0.5-1.3-1.3-1.3h-0.8v2.6H45.5z"/>
		<path class="st3" d="M50.6,54.9h0.7v3.8h-0.7V54.9z"/>
		<path class="st3" d="M52.6,54.9h0.6l2.1,2.6v-2.6h0.7v3.8h-0.6L53.2,56v2.7h-0.7V54.9z"/>
		<path class="st3" d="M58.1,55.5h-1.2v-0.6H60v0.6h-1.2v3.2h-0.7V55.5z"/>
		<path class="st3" d="M61,54.9h2.9v0.6h-2.2v1h1.9v0.6h-1.9v1h2.2v0.6H61V54.9z"/>
		<path class="st3" d="M65,54.9h0.7v3.2h2v0.6H65V54.9z"/>
		<path class="st3" d="M68.7,54.9h0.7v3.8h-0.7V54.9z"/>
		<path class="st3" d="M70.5,56.8L70.5,56.8c0-1.1,0.8-2,2-2c0.7,0,1.1,0.2,1.5,0.5l-0.4,0.5c-0.3-0.3-0.6-0.4-1.1-0.4
			c-0.7,0-1.2,0.6-1.2,1.4v0c0,0.8,0.5,1.4,1.3,1.4c0.4,0,0.7-0.1,0.9-0.3v-0.7h-1v-0.6h1.6v1.6c-0.4,0.3-0.9,0.6-1.6,0.6
			C71.3,58.8,70.5,58,70.5,56.8z"/>
		<path class="st3" d="M75.3,54.9h2.9v0.6h-2.2v1h1.9v0.6h-1.9v1h2.2v0.6h-2.9V54.9z"/>
		<path class="st3" d="M79.2,54.9h0.6l2.1,2.6v-2.6h0.7v3.8H82L79.9,56v2.7h-0.7V54.9z"/>
		<path class="st3" d="M84.8,55.5h-1.2v-0.6h3.1v0.6h-1.2v3.2h-0.7V55.5z"/>
		<path class="st3" d="M87.7,54.9h2.9v0.6h-2.2v1h1.9v0.6h-1.9v1h2.2v0.6h-2.9V54.9z"/>
	</g>
	<path class="st2" d="M83.6,41.6c-3.3-0.7-6.6-1.3-10-1.7c-5.3-0.7-10.7-1-16.2-1c-5.5,0-10.9,0.3-16.2,1c-3.4,0.4-6.7,1-9.9,1.7
		c2.9-1.1,5.9-1.9,9-2.6c1.6-0.4,3.3-0.7,4.9-0.9c0.6-0.1,1.1-0.2,1.7-0.3c1.2-0.2,2.3-0.3,3.5-0.4c0.6-0.1,1.2-0.1,1.7-0.1
		c0.6,0,1.2-0.1,1.7-0.1c0.6,0,1.2,0,1.7-0.1c0.6,0,1.2,0,1.7,0c0.6,0,1.2,0,1.7,0c0.6,0,1.2,0,1.7,0.1c0.6,0,1.2,0.1,1.7,0.1
		c0.6,0,1.2,0.1,1.7,0.1c1.2,0.1,2.3,0.2,3.5,0.4c0.6,0.1,1.2,0.2,1.7,0.3c1.7,0.3,3.3,0.6,4.9,0.9C77.6,39.6,80.6,40.5,83.6,41.6z"
		/>
</g>
</svg>
